<?xml version="1.0" encoding="utf-8"?>
<!-- Generator: Adobe Illustrator 19.0.0, SVG Export Plug-In . SVG Version: 6.00 Build 0)  -->
<svg version="1.1" id="Layer_1" xmlns="http://www.w3.org/2000/svg" xmlns:xlink="http://www.w3.org/1999/xlink" x="0px" y="0px"
	 viewBox="0 0 28 20" style="enable-background:new 0 0 28 20;" xml:space="preserve">
<style type="text/css">
	.st0{display:none;fill-rule:evenodd;clip-rule:evenodd;fill:#FFFFFF;}
	.st1{fill-rule:evenodd;clip-rule:evenodd;fill:#FFFFFF;}
</style>
<path class="st0" d="M1.3,0.1C1.5,0.1,1.8,0,2,0H26c0.2,0,0.5,0.1,0.7,0.1L15.9,10.7c-1.1,1.1-2.8,1.1-3.9,0L1.3,0.1z M27.7,19
	c0.2-0.3,0.3-0.7,0.3-1.1V2.1c0-0.3-0.1-0.6-0.2-0.8l-10,9.9L27.7,19z M16.9,12.1c-0.8,0.7-1.9,1.1-2.9,1.1c-1,0-2.1-0.4-2.9-1.1
	l-9.9,7.7C1.5,19.9,1.7,20,2,20H26c0.3,0,0.5-0.1,0.8-0.2L16.9,12.1z M0.2,1.3C0.1,1.6,0,1.8,0,2.1v15.7c0,0.4,0.1,0.8,0.3,1.1
	l9.9-7.7L0.2,1.3z"/>
<path class="st0" d="M26.3,13.1L14,3.8L1.6,13.1V9.3L14,0l12.3,9.3V13.1z M23.3,12.7V20h-6.2v-4.2h-6.2V20H4.7v-7.2L14,6L23.3,12.7z
	"/>
<path class="st0" d="M19.2,8.4c0-0.3-0.2-0.7-0.4-0.9l-4.3-4.3c-0.2-0.2-0.5-0.2-0.7,0L13,4.2c-0.4-0.4-0.7-0.9-1.2-1.3
	C10.1,1.2,8.3,0,7.2,0C7,0,6.8,0.1,6.7,0.3C6.3,0.6,6.4,1.3,7,2.3c0.5,0.9,1.4,2,2.4,3.1c1.7,1.7,3.5,2.9,4.5,2.9
	c0.2,0,0.4-0.1,0.6-0.2c0.3-0.3,0.3-0.7,0.1-1.3c0.5,0.1,0.9,0.6,0.9,1.2c0,0.7-0.6,1.3-1.2,1.3c-0.6,0-1-0.4-1.2-0.9
	c-0.2-0.1-0.5-0.2-0.8-0.3c-0.6-0.3-1.2-0.8-1.8-1.3L9.6,7.6C9.4,7.8,9.2,8.2,9.2,8.4l-0.9,11c0,0.3,0.2,0.5,0.5,0.5h11
	c0.3,0,0.5-0.2,0.5-0.5L19.2,8.4z M7.2,2.2C6.7,1.3,6.6,0.7,6.8,0.4c0.1-0.1,0.2-0.1,0.4-0.1c0.9,0,2.7,1.2,4.4,2.8
	C12,3.5,12.4,4,12.8,4.4l-2,2C10.4,6,9.9,5.6,9.5,5.2C8.5,4.2,7.7,3.1,7.2,2.2z M14.3,7.9C14.2,8,14.1,8,13.9,8
	c-0.2,0-0.5-0.1-0.9-0.2c0.1-0.6,0.6-1.1,1.2-1.1c0,0,0,0,0,0C14.5,7.3,14.5,7.7,14.3,7.9z"/>
<path class="st1" d="M25.7,9.3l-9.1-9.3v5.3C7.5,6.7,3.6,13.3,2.2,19.9c3.3-4.6,7.8-6.7,14.4-6.7v5.4L25.7,9.3z"/>
</svg>
