<?xml version="1.0" encoding="utf-8"?>
<!-- Generator: Adobe Illustrator 19.0.0, SVG Export Plug-In . SVG Version: 6.00 Build 0)  -->
<svg version="1.1" id="Layer_1" xmlns="http://www.w3.org/2000/svg" xmlns:xlink="http://www.w3.org/1999/xlink" x="0px" y="0px"
	 viewBox="-10 16 28 20" style="enable-background:new -10 16 28 20;" xml:space="preserve">
<style type="text/css">
	.st0{display:none;fill:#FFFFFF;}
	.st1{fill:#FFFFFF;}
</style>
<path class="st0" d="M-8.7,16.1c0.2,0,0.5-0.1,0.7-0.1h24c0.2,0,0.5,0.1,0.7,0.1L5.9,26.7c-1.1,1.1-2.8,1.1-3.9,0L-8.7,16.1z
	 M17.7,35c0.2-0.3,0.3-0.7,0.3-1.1V18.1c0-0.3-0.1-0.6-0.2-0.8l-10,9.9L17.7,35z M6.9,28.1C6.1,28.8,5,29.2,4,29.2s-2.1-0.4-2.9-1.1
	l-9.9,7.7C-8.5,35.9-8.3,36-8,36h24c0.3,0,0.5-0.1,0.8-0.2L6.9,28.1z M-9.8,17.3c-0.1,0.3-0.2,0.5-0.2,0.8v15.7
	c0,0.4,0.1,0.8,0.3,1.1l9.9-7.7L-9.8,17.3z"/>
<path class="st1" d="M18,29.1L4.1,19.8L-10,29.1v-3.8L4.1,16L18,25.3V29.1z M14.6,28.7V36h-7v-4.2h-7V36h-7v-7.2L4.1,22L14.6,28.7z"
	/>
</svg>
