<?xml version="1.0" encoding="utf-8"?>
<!-- Generator: Adobe Illustrator 19.0.0, SVG Export Plug-In . SVG Version: 6.00 Build 0)  -->
<svg version="1.1" id="Layer_1" xmlns="http://www.w3.org/2000/svg" xmlns:xlink="http://www.w3.org/1999/xlink" x="0px" y="0px"
	 viewBox="-10 16 28 20" style="enable-background:new -10 16 28 20;" xml:space="preserve">
<style type="text/css">
	.st0{fill:#FFFFFF;}
</style>
<path class="st0" d="M-7.9,16.7c0.2,0,0.5-0.1,0.7-0.1h22.5c0.2,0,0.5,0.1,0.7,0.1L5.8,26.7c-1,1-2.6,1-3.7,0L-7.9,16.7z M16.8,34.4
	c0.2-0.3,0.3-0.7,0.3-1V18.6c0-0.3-0.1-0.6-0.2-0.8l-9.4,9.3L16.8,34.4z M6.7,28C6,28.6,4.9,29,4,29s-2-0.4-2.7-1L-8,35.2
	c0.3,0.1,0.5,0.2,0.7,0.2h22.5c0.3,0,0.5-0.1,0.7-0.2L6.7,28z M-8.9,17.8c-0.1,0.3-0.2,0.5-0.2,0.8v14.7c0,0.4,0.1,0.8,0.3,1
	l9.3-7.2L-8.9,17.8z"/>
</svg>
