<?xml version="1.0" encoding="utf-8"?>
<!-- Generator: Adobe Illustrator 19.0.0, SVG Export Plug-In . SVG Version: 6.00 Build 0)  -->
<svg version="1.1" id="Capa_1" xmlns="http://www.w3.org/2000/svg" xmlns:xlink="http://www.w3.org/1999/xlink" x="0px" y="0px"
	 viewBox="-326 129 40 29" style="enable-background:new -326 129 40 29;" xml:space="preserve">
<style type="text/css">
	.st0{fill:#FFFFFF;}
</style>
<path class="st0" d="M-306,129c-8,0-14.5,6.5-14.5,14.5c0,8,6.5,14.5,14.5,14.5c8,0,14.5-6.5,14.5-14.5
	C-291.5,135.5-298,129-306,129z M-297.3,138.8l-11.4,11.4c-0.3,0.3-0.6,0.4-1,0.4c-0.4,0-0.7-0.1-1-0.4l-5.8-5.8
	c-0.6-0.6-0.6-1.5,0-2c0.6-0.6,1.5-0.6,2,0l4.7,4.7l10.4-10.4c0.6-0.6,1.5-0.6,2,0C-296.8,137.4-296.8,138.3-297.3,138.8z"/>
</svg>
