<?xml version="1.0" encoding="utf-8"?>
<!-- Generator: Adobe Illustrator 19.0.0, SVG Export Plug-In . SVG Version: 6.00 Build 0)  -->
<svg version="1.1" id="Capa_1" xmlns="http://www.w3.org/2000/svg" xmlns:xlink="http://www.w3.org/1999/xlink" x="0px" y="0px"
	 viewBox="-17 17.2 40 29" style="enable-background:new -17 17.2 40 29;" xml:space="preserve">
<style type="text/css">
	.st0{fill:#FFFFFF;}
</style>
<g>
	<path class="st0" d="M13.5,41.8c1.6-1.6,2.7-3.5,3.4-5.5h-4.3c-0.5,1-1.1,1.9-1.9,2.7c-4,4-10.6,4-14.6,0c-4-4-4-10.6,0-14.6
		c4-4,10.6-4,14.6,0c0,0,0,0,0.1,0.1v0l-2.4,2.4l7.6,0l0-7.6l-2.4,2.4c0,0,0,0-0.1-0.1C7.9,16-1.2,16-6.7,21.6
		c-5.6,5.6-5.6,14.7,0,20.3C-1.2,47.4,7.9,47.4,13.5,41.8z"/>
</g>
</svg>
