<?xml version="1.0" encoding="utf-8"?>
<!-- Generator: Adobe Illustrator 19.0.0, SVG Export Plug-In . SVG Version: 6.00 Build 0)  -->
<svg version="1.1" id="Layer_1" xmlns="http://www.w3.org/2000/svg" xmlns:xlink="http://www.w3.org/1999/xlink" x="0px" y="0px"
	 viewBox="-10 16 28 20" style="enable-background:new -10 16 28 20;" xml:space="preserve">
<style type="text/css">
	.st0{display:none;fill:#FFFFFF;}
	.st1{fill-rule:evenodd;clip-rule:evenodd;fill:#FFFFFF;}
</style>
<path class="st0" d="M-8.7,16.1c0.2,0,0.5-0.1,0.7-0.1h24c0.2,0,0.5,0.1,0.7,0.1L5.9,26.7c-1.1,1.1-2.8,1.1-3.9,0L-8.7,16.1z
	 M17.7,35c0.2-0.3,0.3-0.7,0.3-1.1V18.1c0-0.3-0.1-0.6-0.2-0.8l-10,9.9L17.7,35z M6.9,28.1C6.1,28.8,5,29.2,4,29.2s-2.1-0.4-2.9-1.1
	l-9.9,7.7C-8.5,35.9-8.3,36-8,36h24c0.3,0,0.5-0.1,0.8-0.2L6.9,28.1z M-9.8,17.3c-0.1,0.3-0.2,0.5-0.2,0.8v15.7
	c0,0.4,0.1,0.8,0.3,1.1l9.9-7.7L-9.8,17.3z"/>
<path class="st0" d="M16.3,29.1L4,19.8l-12.4,9.3v-3.8L4,16l12.3,9.3V29.1z M13.3,28.7V36H7.1v-4.2H0.9V36h-6.2v-7.2L4,22L13.3,28.7
	z"/>
<path class="st0" d="M9.2,24.4c0-0.3-0.2-0.7-0.4-0.9l-4.3-4.3C4.3,19,4,19,3.8,19.2l-0.8,1c-0.4-0.4-0.7-0.9-1.2-1.3
	C0.1,17.2-1.7,16-2.8,16c-0.2,0-0.4,0.1-0.5,0.3c-0.4,0.3-0.3,1,0.3,2c0.5,0.9,1.4,2,2.4,3.1c1.7,1.7,3.5,2.9,4.5,2.9
	c0.2,0,0.4-0.1,0.6-0.2c0.3-0.3,0.3-0.7,0.1-1.3c0.5,0.1,0.9,0.6,0.9,1.2c0,0.7-0.6,1.3-1.2,1.3c-0.6,0-1-0.4-1.2-0.9
	c-0.2-0.1-0.5-0.2-0.8-0.3c-0.6-0.3-1.2-0.8-1.8-1.3l-0.9,0.8c-0.2,0.2-0.4,0.6-0.4,0.8l-0.9,11c0,0.3,0.2,0.5,0.5,0.5h11
	c0.3,0,0.5-0.2,0.5-0.5L9.2,24.4z M-2.8,18.2c-0.5-0.9-0.6-1.5-0.4-1.8c0.1-0.1,0.2-0.1,0.4-0.1c0.9,0,2.7,1.2,4.4,2.8
	C2,19.5,2.4,20,2.8,20.4l-2,2c-0.4-0.4-0.9-0.8-1.3-1.2C-1.5,20.2-2.3,19.1-2.8,18.2z M4.3,23.9C4.2,24,4.1,24,3.9,24
	c-0.2,0-0.5-0.1-0.9-0.2c0.1-0.6,0.6-1.1,1.2-1.1l0,0C4.5,23.3,4.5,23.7,4.3,23.9z"/>
<path class="st0" d="M15.7,25.3L6.6,16v5.3c-9.1,1.4-13,8-14.4,14.6c3.3-4.6,7.8-6.7,14.4-6.7v5.4L15.7,25.3z"/>
<path class="st0" d="M1.3,34.6v-5.4c6.6,0,11.1,2.1,14.4,6.7c-1.4-6.6-5.3-13.2-14.4-14.6V16l-9.1,9.3L1.3,34.6z"/>
<path class="st1" d="M13.7,35.9h-0.2H8.2H7c-0.4,0-0.7-0.4-0.7-0.8s0.3-0.8,0.7-0.8c0.2,0,0.3-0.1,0.4-0.2c0.1-0.1,0.1-0.3,0.1-0.5
	c0,0-0.1-0.4-0.5-0.6l-0.5-0.3c-0.3-0.2-0.4-0.5-0.3-0.8l0.2-0.7c0-0.1,0-0.1,0-0.2c0,0,0,0,0,0c0.1-0.5-0.1-1-0.5-1.3l-0.5-0.3
	c-0.3-0.2-0.4-0.6-0.3-0.9l0.2-0.5c0.1-0.2,0.1-0.5,0-0.7c0,0-0.9-2.8-0.9-2.8L0.5,25c-0.5,0.1-1-0.1-1.3-0.4
	c-0.4-0.3-0.6-0.8-0.6-1.2v-5.8c0-0.5,0.2-0.9,0.6-1.2C-0.5,16.1,0,16,0.5,16l8.2,1.2c1.6,0.2,2.8,1.7,2.8,3.3
	c0,1.4-0.9,2.7-2.2,3.1l3.5,10.4c0.1,0.2,0.3,0.5,0.5,0.5h0.3c0.4,0,0.7,0.3,0.7,0.7C14.5,35.6,14.1,35.9,13.7,35.9z M-2.9,23.5
	c-0.2,0-0.4-0.2-0.4-0.4v-5.3c0-0.2,0.2-0.4,0.4-0.4c0.2,0,0.4,0.2,0.4,0.4v5.3C-2.4,23.3-2.6,23.5-2.9,23.5z M-4.7,24.8
	c-0.2,0-0.4-0.2-0.4-0.4v-8c0-0.2,0.2-0.4,0.4-0.4c0.2,0,0.4,0.2,0.4,0.4v8C-4.2,24.6-4.4,24.8-4.7,24.8z M1.9,27.1c1.1,0,2,0.9,2,2
	v3.5c0,1.1-0.9,2-1.9,2h0c0,0-0.1,0-0.1,0l0,0l-6.4,0c-1.1,0-2-0.9-2-2v-3.4c0-1.1,0.9-2.1,2.1-2.1H1.9z M-5.8,29v3.8
	c0,0.6,0.5,1.1,1.1,1.2l0.1,0l6.6,0c0.7,0,1.2-0.6,1.2-1.3h0V29c0-0.7-0.5-1.2-1.2-1.2h-6.6C-5.2,27.8-5.8,28.4-5.8,29z M2.8,29.1
	v3.6c0,0.5-0.4,0.9-0.9,0.9H1.5v-5.3v0h0.4C2.4,28.2,2.8,28.6,2.8,29.1z M-0.1,28.2h1.1v5.3h-1.1V28.2z M-1,28.2h0.5v5.3H-1V28.2z
	 M-2.3,28.2h0.8v5.3h-0.8V28.2z M-3.5,28.2h0.7v5.3h-0.7V28.2z M-5.3,32.6v-3.6c0-0.5,0.4-0.9,0.9-0.9H-4v5.3h-0.4
	C-4.9,33.5-5.3,33.1-5.3,32.6z"/>
</svg>
