<?xml version="1.0" encoding="utf-8"?>
<!-- Generator: Adobe Illustrator 19.0.0, SVG Export Plug-In . SVG Version: 6.00 Build 0)  -->
<svg version="1.1" id="Capa_1" xmlns="http://www.w3.org/2000/svg" xmlns:xlink="http://www.w3.org/1999/xlink" x="0px" y="0px"
	 viewBox="-236 37.1 40 29" style="enable-background:new -236 37.1 40 29;" xml:space="preserve">
<style type="text/css">
	.st0{fill:#FFFFFF;}
</style>
<g>
	<path class="st0" d="M-207.4,50h-0.5v-4.1c0-4.4-3.5-8.1-7.8-8.1c-0.1,0-0.4,0-0.5,0c-4.4,0.1-7.8,3.8-7.8,8.1V46
		c0,0.9,0.7,1.7,1.7,1.7s1.7-0.7,1.7-1.7v-0.1c0-2.6,2.1-4.8,4.7-4.8c2.6,0,4.7,2.2,4.7,4.8V50h-13.3c-0.8,0-1.4,0.8-1.4,1.8v11.9
		c0,1,0.6,1.8,1.4,1.8h17.2c0.8,0,1.4-0.8,1.4-1.8V51.8C-206,50.8-206.6,50-207.4,50z M-214.4,57.8v3.6c0,0.4-0.3,0.8-0.8,0.8h-1.7
		c-0.4,0-0.8-0.3-0.8-0.8v-3.6c-0.4-0.4-0.6-0.9-0.6-1.5c0-1.1,0.9-2.1,2-2.2c0.1,0,0.4,0,0.5,0c1.1,0,2,1,2,2.2
		C-213.8,56.8-214,57.4-214.4,57.8z"/>
</g>
</svg>
