<?xml version="1.0" encoding="utf-8"?>
<!-- Generator: Adobe Illustrator 19.0.0, SVG Export Plug-In . SVG Version: 6.00 Build 0)  -->
<svg version="1.1" id="Capa_1" xmlns="http://www.w3.org/2000/svg" xmlns:xlink="http://www.w3.org/1999/xlink" x="0px" y="0px"
	 viewBox="-309 110.7 40 29" style="enable-background:new -309 110.7 40 29;" xml:space="preserve">
<style type="text/css">
	.st0{fill:#FFFFFF;}
</style>
<g>
	<g>
		<g>
			<path class="st0" d="M-278.6,121.6l-0.5-1.2c1.7-3.8,1.6-3.9,1.2-4.2l-2.1-2.1l-0.2-0.2h-0.2c-0.1,0-0.5,0-3.8,1.5l-1.2-0.5
				c-1.5-3.8-1.7-3.8-2.2-3.8h-3c-0.5,0-0.6,0-2.1,3.9l-1.2,0.5c-2.2-0.9-3.5-1.4-3.8-1.4l-0.3,0l-2.3,2.3c-0.3,0.3-0.5,0.4,1.3,4.2
				l-0.5,1.2c-3.9,1.5-3.9,1.7-3.9,2.1v3c0,0.5,0,0.6,3.9,2l0.5,1.2c-1.7,3.8-1.6,3.9-1.2,4.2l2.1,2.1l0.2,0.2h0.2
				c0.1,0,0.5,0,3.8-1.5l1.2,0.5c1.5,3.8,1.7,3.8,2.2,3.8h3c0.5,0,0.6,0,2.1-3.9l1.2-0.5c2.2,0.9,3.5,1.4,3.8,1.4l0.3,0l2.3-2.3
				c0.3-0.3,0.4-0.4-1.3-4.2l0.5-1.2c3.9-1.5,3.9-1.7,3.9-2.1v-3C-274.6,123.2-274.6,123.1-278.6,121.6z M-289,130.2
				c-2.8,0-5-2.2-5-4.9c0-2.7,2.3-4.9,5-4.9c2.8,0,5,2.2,5,4.9C-284,127.9-286.2,130.2-289,130.2z"/>
		</g>
	</g>
</g>
</svg>
